<svg width="200" height="200" viewBox="0 0 200 200" xmlns="http://www.w3.org/2000/svg">
  <defs>
    <radialGradient id="gradient3" cx="50%" cy="50%" r="50%">
      <stop offset="0%" style="stop-color:#f59e0b;stop-opacity:1" />
      <stop offset="100%" style="stop-color:#d97706;stop-opacity:1" />
    </radialGradient>
  </defs>

  <!-- Background circle -->
  <circle cx="100" cy="100" r="95" fill="url(#gradient3)"/>

  <!-- Receipt icon -->
  <rect x="50" y="50" width="100" height="120" rx="8" fill="white" opacity="0.95"/>
  <rect x="60" y="65" width="80" height="4" rx="2" fill="#d97706"/>
  <rect x="60" y="75" width="60" height="4" rx="2" fill="#d97706"/>
  <rect x="60" y="85" width="70" height="4" rx="2" fill="#d97706"/>
  <rect x="60" y="95" width="50" height="4" rx="2" fill="#d97706"/>
  <rect x="60" y="105" width="65" height="4" rx="2" fill="#d97706"/>
  <rect x="60" y="115" width="40" height="4" rx="2" fill="#d97706"/>
  <rect x="60" y="125" width="55" height="4" rx="2" fill="#d97706"/>
  <rect x="60" y="135" width="45" height="4" rx="2" fill="#d97706"/>
  <!-- Total line -->
  <rect x="60" y="150" width="80" height="6" rx="3" fill="#f59e0b"/>

  <!-- Decorative elements -->
  <circle cx="75" cy="35" r="8" fill="#fbbf24"/>
  <circle cx="100" cy="35" r="8" fill="#fbbf24"/>
  <circle cx="125" cy="35" r="8" fill="#fbbf24"/>
</svg>